# xmcd
#
# Track frame offsets:
#	150
#	2556
#	17769
#	34266
#	50955
#	66766
#	83912
#	101578
#	115333
#	131887
#	152343
#	168992
#	186312
#	202849
#	222704
#	241116
#
# Disc length: 3474 seconds
#
# Revision: 1
# Processed by: cddbd v1.5.2PL0 Copyright (c) Steve Scherf et al.
# Submitted via: EasyCDDAExtractor 2010.4.0.0
#
DISCID=dc0d9010
DTITLE=Zezinho and Floreio - Assim no mais...
DYEAR=2013
DGENRE=Gaúcha
TTITLE0=Vinheta de Abertura - Conesul
TTITLE1=Gastando a Vida Num Basto
TTITLE2=Esta Vaneira
TTITLE3=Sob a Manga da Chuva
TTITLE4=Bailanta de Campanha
TTITLE5=Definição das Pilchas
TTITLE6=Milonga Pra Ela
TTITLE7=Lá Fora
TTITLE8=Xucro de Viamão
TTITLE9=Depois da Cancela
TTITLE10=Zóio Verde
TTITLE11=Assim no Mais
TTITLE12=Não Fróxa, Medeiros
TTITLE13=Tropilha
TTITLE14=De Marca Maior
TTITLE15=Dr. dos Xotes
EXTD=
EXTT0=
EXTT1=
EXTT2=
EXTT3=
EXTT4=
EXTT5=
EXTT6=
EXTT7=
EXTT8=
EXTT9=
EXTT10=
EXTT11=
EXTT12=
EXTT13=
EXTT14=
EXTT15=
PLAYORDER=
